<svg width="1791" height="1426" xmlns="http://www.w3.org/2000/svg" xmlns:xlink="http://www.w3.org/1999/xlink" overflow="hidden"><defs><clipPath id="clip0"><rect x="-91" y="430" width="1791" height="1426"/></clipPath></defs><g clip-path="url(#clip0)" transform="translate(91 -430)"><path d="M174 773.5C174 584.343 327.342 431 516.5 431 705.658 431 859 584.343 859 773.5 859 962.658 705.658 1116 516.5 1116 327.342 1116 174 962.658 174 773.5Z" fill="#373E70" fill-rule="evenodd" fill-opacity="1"/><path d="M-12 1539.5C-12 1364.7 129.702 1223 304.5 1223 479.298 1223 621 1364.7 621 1539.5 621 1714.3 479.298 1856 304.5 1856 129.702 1856-12 1714.3-12 1539.5Z" fill="#373E70" fill-rule="evenodd" fill-opacity="1"/><path d="M1468.73 1003.87C1579.1 1011.31 1675.16 1101.92 1694.08 1225.28 1715.7 1366.27 1628.37 1496.64 1499.03 1516.47 1450.53 1523.91 1403.01 1514.75 1361.41 1492.96L1334.96 1484.61C1298.64 1479.62 1257.53 1473.71 1218.71 1491.28 1192.83 1503 1163.4 1537.56 1135.17 1569.12L1118.06 1587.74 1113.74 1593.83C1071.73 1642.32 1012.91 1671.53 947.244 1669.98 815.916 1666.88 706.94 1541.89 703.839 1390.82 700.932 1249.19 792.111 1134.91 911.73 1123.73L931.415 1123.05 948.231 1122.06C1024.38 1122.87 1148.05 1149.09 1197.93 1143.38 1247.81 1137.66 1254.94 1115.54 1270.79 1099.42L1296.48 1069.6C1329.64 1036.34 1372.23 1013.36 1420.74 1005.92 1436.9 1003.44 1452.96 1002.81 1468.73 1003.87Z" fill="#373E70" fill-rule="evenodd" fill-opacity="1"/><path d="M986 845.5C986 760.724 1054.72 692 1139.5 692 1224.28 692 1293 760.724 1293 845.5 1293 930.276 1224.28 999 1139.5 999 1054.72 999 986 930.276 986 845.5Z" fill="#373E70" fill-rule="evenodd" fill-opacity="1"/><path d="M-89 1081.5C-89 1008.87-30.1255 950 42.5 950 115.125 950 174 1008.87 174 1081.5 174 1154.13 115.125 1213 42.5 1213-30.1255 1213-89 1154.13-89 1081.5Z" fill="#373E70" fill-rule="evenodd" fill-opacity="1"/><path d="M1202 1703.5C1202 1652.41 1243.19 1611 1294 1611 1344.81 1611 1386 1652.41 1386 1703.5 1386 1754.59 1344.81 1796 1294 1796 1243.19 1796 1202 1754.59 1202 1703.5Z" fill="#373E70" fill-rule="evenodd" fill-opacity="1"/><path d="M482.405 488.191C551.945 447.329 668.135 477.545 741.924 555.68 780.417 596.441 801.394 644.414 799.48 687.31L725.559 664.086C714.365 619.265 656.245 567.521 595.743 548.512 572.483 541.204 551.196 539.571 534.966 543.849Z" fill="#FFFFFF" fill-rule="evenodd" fill-opacity="1"/><path d="M1087.43 728.924C1150.63 706.501 1225.37 734.01 1254.36 790.366 1258.61 798.611 1261.71 807.223 1263.61 816.014L1218.47 821.471C1208.24 786.166 1164.78 761.797 1121.4 767.041 1116.94 767.581 1112.57 768.431 1108.34 769.58Z" fill="#FFFFFF" fill-rule="evenodd" fill-opacity="1"/><path d="M18.9228 974.124C79.1795 968.483 138.588 1008.99 151.615 1064.59 153.503 1072.65 154.335 1080.77 154.095 1088.8L113.468 1083.7C112.122 1050.6 79.2622 1019.78 40.0733 1014.86 36.1223 1014.37 32.1895 1014.15 28.3159 1014.22Z" fill="#FFFFFF" fill-rule="evenodd" fill-opacity="1"/><path d="M1282.03 1629.87C1320.91 1618.49 1357.54 1642.28 1363.84 1683.01 1364.11 1684.72 1364.32 1686.45 1364.47 1688.19L1334.15 1694.78C1334.1 1669.87 1315.83 1653.65 1293.35 1658.53 1291.15 1659.01 1288.95 1659.69 1286.78 1660.55Z" fill="#FFFFFF" fill-rule="evenodd" fill-opacity="1"/><path d="M271.63 1289.6C336.158 1251.69 443.974 1279.72 512.445 1352.23 548.164 1390.05 567.629 1434.57 565.852 1474.37L497.26 1452.82C486.872 1411.23 432.94 1363.22 376.799 1345.58 355.216 1338.8 335.463 1337.28 320.403 1341.25Z" fill="#FFFFFF" fill-rule="evenodd" fill-opacity="1"/><path d="M1382.33 1060.18C1443.33 1019.33 1544.49 1040.96 1608.28 1108.52 1638.91 1140.95 1656.65 1179.85 1657.61 1216.65L1581.59 1200.4C1569.29 1162.91 1521.83 1124.5 1475.57 1114.61 1459.86 1111.25 1445.63 1111.54 1434.53 1115.45Z" fill="#FFFFFF" fill-rule="evenodd" fill-opacity="1"/></g></svg>