<svg width="862" height="1091" xmlns="http://www.w3.org/2000/svg" xmlns:xlink="http://www.w3.org/1999/xlink" overflow="hidden"><defs><clipPath id="clip0"><rect x="2048" y="394" width="862" height="1091"/></clipPath></defs><g clip-path="url(#clip0)" transform="translate(-2048 -394)"><path d="M2805.68 533.012 2557 492" stroke="#2F5597" stroke-width="45.8333" stroke-linecap="butt" stroke-linejoin="miter" stroke-miterlimit="8" stroke-opacity="1" fill="none" fill-rule="evenodd"/><path d="M0 0 281.436 81.5018" stroke="#2F5597" stroke-width="45.8333" stroke-linecap="butt" stroke-linejoin="miter" stroke-miterlimit="8" stroke-opacity="1" fill="none" fill-rule="evenodd" transform="matrix(-1 0 0 1 2546.44 475)"/><path d="M0 0 117.932 255.371" stroke="#2F5597" stroke-width="45.8333" stroke-linecap="butt" stroke-linejoin="miter" stroke-miterlimit="8" stroke-opacity="1" fill="none" fill-rule="evenodd" transform="matrix(-1 0 0 1 2254.93 557)"/><path d="M2131 842 2131.66 1119.81" stroke="#2F5597" stroke-width="45.8333" stroke-linecap="butt" stroke-linejoin="miter" stroke-miterlimit="8" stroke-opacity="1" fill="none" fill-rule="evenodd"/><path d="M2296 1343 2546.2 1396.81" stroke="#548235" stroke-width="45.8333" stroke-linecap="butt" stroke-linejoin="miter" stroke-miterlimit="8" stroke-opacity="1" fill="none" fill-rule="evenodd"/><path d="M2821 1041 2821 1243.14" stroke="#548235" stroke-width="45.8333" stroke-linecap="butt" stroke-linejoin="miter" stroke-miterlimit="8" stroke-opacity="1" fill="none" fill-rule="evenodd"/><path d="M2722 533C2722 486.608 2759.61 449 2806 449 2852.39 449 2890 486.608 2890 533 2890 579.392 2852.39 617 2806 617 2759.61 617 2722 579.392 2722 533Z" fill="#4472C4" fill-rule="evenodd" fill-opacity="1"/><path d="M2449 481C2449 434.608 2486.83 397 2533.5 397 2580.17 397 2618 434.608 2618 481 2618 527.392 2580.17 565 2533.5 565 2486.83 565 2449 527.392 2449 481Z" fill="#B4C7E7" fill-rule="evenodd" fill-opacity="1"/><path d="M2177 565.5C2177 518.832 2214.83 481 2261.5 481 2308.17 481 2346 518.832 2346 565.5 2346 612.168 2308.17 650 2261.5 650 2214.83 650 2177 612.168 2177 565.5Z" fill="#4472C4" fill-rule="evenodd" fill-opacity="1"/><path d="M2050 837.5C2050 790.832 2087.61 753 2134 753 2180.39 753 2218 790.832 2218 837.5 2218 884.168 2180.39 922 2134 922 2087.61 922 2050 884.168 2050 837.5Z" fill="#B4C7E7" fill-rule="evenodd" fill-opacity="1"/><path d="M2049 1125C2049 1078.61 2086.61 1041 2133 1041 2179.39 1041 2217 1078.61 2217 1125 2217 1171.39 2179.39 1209 2133 1209 2086.61 1209 2049 1171.39 2049 1125Z" fill="#4472C4" fill-rule="evenodd" fill-opacity="1"/><path d="M2737 979.5C2737 932.832 2774.83 895 2821.5 895 2868.17 895 2906 932.832 2906 979.5 2906 1026.17 2868.17 1064 2821.5 1064 2774.83 1064 2737 1026.17 2737 979.5Z" fill="#70AD47" fill-rule="evenodd" fill-opacity="1"/><path d="M2186 1329C2186 1282.61 2223.83 1245 2270.5 1245 2317.17 1245 2355 1282.61 2355 1329 2355 1375.39 2317.17 1413 2270.5 1413 2223.83 1413 2186 1375.39 2186 1329Z" fill="#C5E0B4" fill-rule="evenodd" fill-opacity="1"/><path d="M2474.5 980C2474.5 942.169 2505.39 911.5 2543.5 911.5 2581.61 911.5 2612.5 942.169 2612.5 980 2612.5 1017.83 2581.61 1048.5 2543.5 1048.5 2505.39 1048.5 2474.5 1017.83 2474.5 980Z" stroke="#000000" stroke-width="4.58333" stroke-linecap="butt" stroke-linejoin="miter" stroke-miterlimit="8" stroke-opacity="1" fill="#000000" fill-rule="evenodd" fill-opacity="1"/><path d="M2231 870.537 2418.98 924.47 2412.97 945.397 2225 891.463ZM2414.52 900.542 2468.29 949.944 2396.51 963.321Z" fill="#F4B183" fill-rule="nonzero" fill-opacity="0.309804"/><path d="M2.97569-10.4708 190.915 42.9395 184.964 63.8811-2.97569 10.4708ZM186.396 19.0223 240.293 68.2888 168.542 81.847Z" fill="#F4B183" fill-rule="nonzero" fill-opacity="0.309804" transform="matrix(1 0 0 -1 2228 1087.29)"/><path d="M2612.5 969.187 2686.45 969.188 2686.45 989.812 2612.5 989.812ZM2676.14 948.562 2738.01 979.5 2676.14 1010.44Z" fill="#000000" fill-rule="nonzero" fill-opacity="1"/><path d="M0 0 173.653 68.8247" stroke="#548235" stroke-width="45.8333" stroke-linecap="butt" stroke-linejoin="miter" stroke-miterlimit="8" stroke-opacity="1" fill="none" fill-rule="evenodd" transform="matrix(1 0 0 -1 2596 1396.82)"/><path d="M2737 1308C2737 1261.61 2774.83 1224 2821.5 1224 2868.17 1224 2906 1261.61 2906 1308 2906 1354.39 2868.17 1392 2821.5 1392 2774.83 1392 2737 1354.39 2737 1308Z" fill="#C5E0B4" fill-rule="evenodd" fill-opacity="1"/><path d="M2468 1396.5C2468 1349.83 2505.83 1312 2552.5 1312 2599.17 1312 2637 1349.83 2637 1396.5 2637 1443.17 2599.17 1481 2552.5 1481 2505.83 1481 2468 1443.17 2468 1396.5Z" fill="#70AD47" fill-rule="evenodd" fill-opacity="1"/></g></svg>