<svg id="Layer_1" data-name="Layer 1" xmlns="http://www.w3.org/2000/svg" viewBox="0 0 289 291"><defs><style>.cls-1,.cls-4{fill:#eceae5;}.cls-1,.cls-2,.cls-3,.cls-4{fill-rule:evenodd;}.cls-1{opacity:0.47;}.cls-2{fill:#d34e40;opacity:0.78;}.cls-3{fill:#f7be31;}.cls-4{opacity:0.23;}.cls-5{fill:none;stroke:#fff;stroke-miterlimit:8;stroke-width:3px;}</style></defs><title>zest_logo</title><path class="cls-1" d="M256,169c62.13,0,113.24,12,119.38,27.3l.62,3.11h0V395.59h0c0,16.8-53.73,30.41-120,30.41s-120-13.61-120-30.41h0V199.41h0l.62-3.11C142.76,181,193.87,169,256,169Z" transform="translate(-135 -137)"/><path class="cls-2" d="M256,250c66.27,0,120,13.62,120,30.41l-.45,1.15H376v80h0l-.62,3.11C369.24,380,318.13,392,256,392s-113.24-12-119.38-27.3l-.62-3.11h0v-80h.45l-.45-1.15C136,263.62,189.73,250,256,250Z" transform="translate(-135 -137)"/><path class="cls-3" d="M158.19,316.09c-1.76,2.12-10.7,22.93-10.17,32.63s7.39,20.19,13.38,25.57S175.33,380.93,184,381s16.09-1.05,29.26-6.29S245.59,363,263,349.56s41.4-36.86,54.43-55.23,17.61-39.75,23.72-55,8-27.25,12.95-36.47S364.36,186.6,370.77,184s16.72.28,21.73,3.35,7.66,10,8.36,15.09-1.46,12-4.18,15.51-12.54,4.61-12.12,5.45,10,1.05,14.63-.42,9.33-3.56,13.37-8.38,9.55-12.79,10.87-20.54a51,51,0,0,0-2.93-26c-3.27-8-9.33-16.69-16.71-21.79s-19.58-7.56-27.59-8.78S363,137.45,355.77,139s-16.71,4.15-23,7.7-9.75,8-15,13.57a152.49,152.49,0,0,0-16.61,20.12c-6.18,9-14.46,23.28-20.44,34S275,229.51,265.19,244.5s-32,46.18-43.2,59.8-15.9,16.39-24,21.89-18.64,10.14-24.49,11.12-12.35,2.23-14.91-1.31S160,314,158.19,316.09Z" transform="translate(-135 -137)"/><path class="cls-2" d="M136,282h.23l.39,2c6.14,15.27,57.25,27.19,119.38,27.19S369.24,299.23,375.38,284l.39-2H376v79.71h0l-2.44,6.1C362.37,381.62,314,392,256,392s-106.37-10.38-117.56-24.19l-2.44-6.1h0Z" transform="translate(-135 -137)"/><path class="cls-4" d="M136.5,199.5Zm240,0Zm-240,0c0,16.82,53.73,30.46,120,30.46s120-13.64,120-30.46V392.94h-.62l.62,3.1c0,16.82-53.73,30.46-120,30.46s-120-13.64-120-30.46l.62-3.1h-.62Z" transform="translate(-135 -137)"/><path class="cls-5" d="M136.5,199.5Zm240,0Zm-240,0c0,16.82,53.73,30.46,120,30.46s120-13.64,120-30.46V392.94h-.62l.62,3.1c0,16.82-53.73,30.46-120,30.46s-120-13.64-120-30.46l.62-3.1h-.62Z" transform="translate(-135 -137)"/></svg>